<mxfile host="app.diagrams.net" modified="2021-05-16T10:15:51.104Z" agent="5.0 (Windows NT 10.0; Win64; x64) AppleWebKit/537.36 (KHTML, like Gecko) Chrome/69.0.3497.100 Safari/537.36" etag="aCq7nZxW8tsQqbP8IzZz" version="14.6.13" type="github">
  <diagram id="vdafDxujOOAYQrkNr4T3" name="Page-1">
    <mxGraphModel dx="868" dy="482" grid="1" gridSize="10" guides="1" tooltips="1" connect="1" arrows="1" fold="1" page="1" pageScale="1" pageWidth="827" pageHeight="1169" math="0" shadow="0">
      <root>
        <mxCell id="0" />
        <mxCell id="1" parent="0" />
        <mxCell id="-7RuRoa7ql6LZmsVnvAy-1" value="TForm1: TForm" style="rounded=0;whiteSpace=wrap;html=1;" parent="1" vertex="1">
          <mxGeometry x="50" y="30" width="120" height="60" as="geometry" />
        </mxCell>
        <mxCell id="-7RuRoa7ql6LZmsVnvAy-2" value="Circle:TAbstrCircle" style="rounded=0;whiteSpace=wrap;html=1;" parent="1" vertex="1">
          <mxGeometry x="610" y="30" width="120" height="60" as="geometry" />
        </mxCell>
        <mxCell id="-7RuRoa7ql6LZmsVnvAy-3" value="TApprCircle: TCircle" style="rounded=0;whiteSpace=wrap;html=1;" parent="1" vertex="1">
          <mxGeometry x="770" y="30" width="120" height="60" as="geometry" />
        </mxCell>
        <mxCell id="-7RuRoa7ql6LZmsVnvAy-4" value="LT:Tlist&amp;lt;TAbstrCircle&amp;gt;" style="rounded=0;whiteSpace=wrap;html=1;" parent="1" vertex="1">
          <mxGeometry x="280" y="30" width="130" height="60" as="geometry" />
        </mxCell>
        <mxCell id="-7RuRoa7ql6LZmsVnvAy-5" value="" style="rounded=0;whiteSpace=wrap;html=1;rotation=90;" parent="1" vertex="1">
          <mxGeometry x="-50" y="270" width="320" height="10" as="geometry" />
        </mxCell>
        <mxCell id="-7RuRoa7ql6LZmsVnvAy-7" value="" style="endArrow=none;html=1;entryX=0.5;entryY=1;entryDx=0;entryDy=0;" parent="1" target="-7RuRoa7ql6LZmsVnvAy-1" edge="1">
          <mxGeometry width="50" height="50" relative="1" as="geometry">
            <mxPoint x="110" y="115" as="sourcePoint" />
            <mxPoint x="135" y="80" as="targetPoint" />
          </mxGeometry>
        </mxCell>
        <mxCell id="-7RuRoa7ql6LZmsVnvAy-8" value="System" style="rounded=0;whiteSpace=wrap;html=1;" parent="1" vertex="1">
          <mxGeometry x="450" y="30" width="120" height="60" as="geometry" />
        </mxCell>
        <mxCell id="-7RuRoa7ql6LZmsVnvAy-10" value="" style="rounded=0;whiteSpace=wrap;html=1;rotation=90;" parent="1" vertex="1">
          <mxGeometry x="195" y="265" width="320" height="20" as="geometry" />
        </mxCell>
        <mxCell id="-7RuRoa7ql6LZmsVnvAy-11" value="" style="endArrow=none;html=1;" parent="1" edge="1">
          <mxGeometry width="50" height="50" relative="1" as="geometry">
            <mxPoint x="354.5" y="115" as="sourcePoint" />
            <mxPoint x="354.5" y="90" as="targetPoint" />
          </mxGeometry>
        </mxCell>
        <mxCell id="-7RuRoa7ql6LZmsVnvAy-13" value="" style="endArrow=classic;html=1;" parent="1" edge="1">
          <mxGeometry width="50" height="50" relative="1" as="geometry">
            <mxPoint x="120" y="120" as="sourcePoint" />
            <mxPoint x="340" y="120" as="targetPoint" />
          </mxGeometry>
        </mxCell>
        <mxCell id="-7RuRoa7ql6LZmsVnvAy-14" value="1. TForm1.loadfromfile(LT:Tlist; name: string);" style="text;html=1;align=center;verticalAlign=middle;whiteSpace=wrap;rounded=0;fontColor=#FF0000;fontSize=10;" parent="1" vertex="1">
          <mxGeometry x="120" y="100" width="210" height="20" as="geometry" />
        </mxCell>
        <mxCell id="-7RuRoa7ql6LZmsVnvAy-17" value="" style="endArrow=none;dashed=1;html=1;entryX=0.5;entryY=1;entryDx=0;entryDy=0;startArrow=none;" parent="1" source="-7RuRoa7ql6LZmsVnvAy-19" target="-7RuRoa7ql6LZmsVnvAy-8" edge="1">
          <mxGeometry width="50" height="50" relative="1" as="geometry">
            <mxPoint x="510" y="440" as="sourcePoint" />
            <mxPoint x="800" y="120" as="targetPoint" />
          </mxGeometry>
        </mxCell>
        <mxCell id="-7RuRoa7ql6LZmsVnvAy-18" value="" style="rounded=0;whiteSpace=wrap;html=1;" parent="1" vertex="1">
          <mxGeometry x="500" y="140" width="20" height="40" as="geometry" />
        </mxCell>
        <mxCell id="-7RuRoa7ql6LZmsVnvAy-19" value="" style="rounded=0;whiteSpace=wrap;html=1;rotation=90;" parent="1" vertex="1">
          <mxGeometry x="490" y="220" width="40" height="20" as="geometry" />
        </mxCell>
        <mxCell id="-7RuRoa7ql6LZmsVnvAy-20" value="" style="endArrow=none;dashed=1;html=1;startArrow=none;" parent="1" source="-7RuRoa7ql6LZmsVnvAy-21" edge="1">
          <mxGeometry width="50" height="50" relative="1" as="geometry">
            <mxPoint x="510" y="440" as="sourcePoint" />
            <mxPoint x="510" y="250" as="targetPoint" />
          </mxGeometry>
        </mxCell>
        <mxCell id="-7RuRoa7ql6LZmsVnvAy-22" value="" style="endArrow=classic;html=1;exitX=0.109;exitY=-0.5;exitDx=0;exitDy=0;exitPerimeter=0;entryX=0;entryY=0.25;entryDx=0;entryDy=0;" parent="1" source="-7RuRoa7ql6LZmsVnvAy-10" target="-7RuRoa7ql6LZmsVnvAy-18" edge="1">
          <mxGeometry width="50" height="50" relative="1" as="geometry">
            <mxPoint x="440" y="280" as="sourcePoint" />
            <mxPoint x="490" y="230" as="targetPoint" />
          </mxGeometry>
        </mxCell>
        <mxCell id="-7RuRoa7ql6LZmsVnvAy-23" value="1.1. assignFile(f, name)" style="text;html=1;strokeColor=none;fillColor=none;align=center;verticalAlign=middle;whiteSpace=wrap;rounded=0;fontColor=#FF0000;fontSize=10;" parent="1" vertex="1">
          <mxGeometry x="371" y="130" width="129" height="20" as="geometry" />
        </mxCell>
        <mxCell id="-7RuRoa7ql6LZmsVnvAy-25" value="" style="endArrow=classic;html=1;fontSize=10;fontColor=#FF0000;entryX=0.5;entryY=1;entryDx=0;entryDy=0;" parent="1" target="-7RuRoa7ql6LZmsVnvAy-19" edge="1">
          <mxGeometry width="50" height="50" relative="1" as="geometry">
            <mxPoint x="385.5" y="229.5" as="sourcePoint" />
            <mxPoint x="485.5" y="229.5" as="targetPoint" />
          </mxGeometry>
        </mxCell>
        <mxCell id="-7RuRoa7ql6LZmsVnvAy-27" value="" style="rounded=0;whiteSpace=wrap;html=1;fontSize=10;strokeColor=#666666;gradientColor=#b3b3b3;fillColor=#f5f5f5;" parent="1" vertex="1">
          <mxGeometry x="360" y="220" width="20" height="130" as="geometry" />
        </mxCell>
        <mxCell id="-7RuRoa7ql6LZmsVnvAy-28" value="&lt;font color=&quot;#000000&quot;&gt;while not eof(f) do&lt;/font&gt;" style="text;html=1;strokeColor=none;fillColor=none;align=center;verticalAlign=middle;whiteSpace=wrap;rounded=0;fontSize=10;fontColor=#FF0000;" parent="1" vertex="1">
          <mxGeometry x="384.5" y="200" width="105.5" height="20" as="geometry" />
        </mxCell>
        <mxCell id="-7RuRoa7ql6LZmsVnvAy-29" value="" style="rounded=0;whiteSpace=wrap;html=1;fontSize=10;fillColor=#f5f5f5;strokeColor=#666666;gradientColor=#ABABAB;" parent="1" vertex="1">
          <mxGeometry x="371" y="270" width="19" height="70" as="geometry" />
        </mxCell>
        <mxCell id="-7RuRoa7ql6LZmsVnvAy-31" value="if (sl.Count = 3) then" style="text;html=1;strokeColor=none;fillColor=none;align=center;verticalAlign=middle;whiteSpace=wrap;rounded=0;fontSize=10;" parent="1" vertex="1">
          <mxGeometry x="550" y="255" width="100" height="10" as="geometry" />
        </mxCell>
        <mxCell id="-7RuRoa7ql6LZmsVnvAy-32" value="" style="endArrow=classic;html=1;fontSize=10;fontColor=#000000;entryX=0.75;entryY=1;entryDx=0;entryDy=0;exitX=0.947;exitY=0.414;exitDx=0;exitDy=0;exitPerimeter=0;" parent="1" source="-7RuRoa7ql6LZmsVnvAy-29" target="-7RuRoa7ql6LZmsVnvAy-21" edge="1">
          <mxGeometry width="50" height="50" relative="1" as="geometry">
            <mxPoint x="394" y="320" as="sourcePoint" />
            <mxPoint x="490" y="230" as="targetPoint" />
          </mxGeometry>
        </mxCell>
        <mxCell id="-7RuRoa7ql6LZmsVnvAy-35" value="" style="rounded=0;whiteSpace=wrap;html=1;fontSize=10;" parent="1" vertex="1">
          <mxGeometry x="670" y="271.88" width="20" height="36.25" as="geometry" />
        </mxCell>
        <mxCell id="-7RuRoa7ql6LZmsVnvAy-36" value="" style="endArrow=classic;html=1;fontSize=10;fontColor=#000000;entryX=0;entryY=0.5;entryDx=0;entryDy=0;exitX=0.5;exitY=0;exitDx=0;exitDy=0;startArrow=none;" parent="1" source="-7RuRoa7ql6LZmsVnvAy-21" target="-7RuRoa7ql6LZmsVnvAy-35" edge="1">
          <mxGeometry width="50" height="50" relative="1" as="geometry">
            <mxPoint x="560" y="343.13" as="sourcePoint" />
            <mxPoint x="610" y="293.13" as="targetPoint" />
          </mxGeometry>
        </mxCell>
        <mxCell id="-7RuRoa7ql6LZmsVnvAy-37" value="1.2. sl:= TStringList.Create();" style="text;html=1;strokeColor=none;fillColor=none;align=center;verticalAlign=middle;whiteSpace=wrap;rounded=0;fontSize=9;fontColor=#FF0000;" parent="1" vertex="1">
          <mxGeometry x="380" y="210" width="120" height="20" as="geometry" />
        </mxCell>
        <mxCell id="-7RuRoa7ql6LZmsVnvAy-39" value="" style="rounded=0;whiteSpace=wrap;html=1;fontSize=9;" parent="1" vertex="1">
          <mxGeometry x="820" y="310" width="20" height="40" as="geometry" />
        </mxCell>
        <mxCell id="-7RuRoa7ql6LZmsVnvAy-21" value="" style="rounded=0;whiteSpace=wrap;html=1;rotation=90;" parent="1" vertex="1">
          <mxGeometry x="490" y="280" width="40" height="20" as="geometry" />
        </mxCell>
        <mxCell id="-7RuRoa7ql6LZmsVnvAy-40" value="" style="endArrow=none;dashed=1;html=1;" parent="1" target="-7RuRoa7ql6LZmsVnvAy-21" edge="1">
          <mxGeometry width="50" height="50" relative="1" as="geometry">
            <mxPoint x="510" y="440" as="sourcePoint" />
            <mxPoint x="510" y="250" as="targetPoint" />
          </mxGeometry>
        </mxCell>
        <mxCell id="-7RuRoa7ql6LZmsVnvAy-33" value="LT.Add(TCircle.create(StrToFloat(sl[0]), StrToFloat(sl[1]), StrToFloat(sl[2])))" style="text;html=1;strokeColor=none;fillColor=none;align=center;verticalAlign=middle;whiteSpace=wrap;rounded=0;fontSize=8;fontColor=#FF0000;" parent="1" vertex="1">
          <mxGeometry x="552.5" y="270" width="85" height="20" as="geometry" />
        </mxCell>
        <mxCell id="-7RuRoa7ql6LZmsVnvAy-42" value="" style="endArrow=classic;html=1;fontSize=9;fontColor=#FF0000;entryX=0;entryY=0.5;entryDx=0;entryDy=0;" parent="1" target="-7RuRoa7ql6LZmsVnvAy-39" edge="1">
          <mxGeometry width="50" height="50" relative="1" as="geometry">
            <mxPoint x="390" y="330" as="sourcePoint" />
            <mxPoint x="810" y="340" as="targetPoint" />
          </mxGeometry>
        </mxCell>
        <mxCell id="-7RuRoa7ql6LZmsVnvAy-43" value="LT.Add(TApprCircle.create(StrToFloat(sl[0]), StrToFloat(sl[1]), StrToFloat(sl[2]), StrToInt(sl[3])));" style="text;html=1;strokeColor=none;fillColor=none;align=center;verticalAlign=middle;whiteSpace=wrap;rounded=0;fontSize=9;fontColor=#FF0000;" parent="1" vertex="1">
          <mxGeometry x="410" y="330" width="380" height="20" as="geometry" />
        </mxCell>
        <mxCell id="lZ2C1sFTPMCUKJBcPO8C-1" value="else" style="text;html=1;strokeColor=none;fillColor=none;align=center;verticalAlign=middle;whiteSpace=wrap;rounded=0;fontSize=10;" vertex="1" parent="1">
          <mxGeometry x="430" y="310" width="40" height="20" as="geometry" />
        </mxCell>
      </root>
    </mxGraphModel>
  </diagram>
</mxfile>
